<svg width="190" height="28" viewBox="0 0 190 28" fill="none" xmlns="http://www.w3.org/2000/svg">
<path d="M4.87225 14.7319L0.494111 22.5057C-0.312014 23.9289 -0.118545 25.6499 0.977786 26.8414C1.68718 27.6026 2.59004 27.9998 3.52514 27.9998C4.07331 27.9998 4.65372 27.8674 5.16964 27.6026L14.0896 22.9314L8.83888 20.1816C6.97492 19.2028 5.6532 17.5197 5.06392 15.5324C4.98534 15.2673 4.92153 15.0002 4.87225 14.7319Z" fill="#A59878"/>
<path d="M16.2025 0C18.0082 0 19.6527 0.959811 20.5555 2.58156L31.7768 22.5059C32.5829 23.9291 32.3895 25.6501 31.2931 26.8416C30.5837 27.6028 29.6809 28 28.7458 28C28.1976 28 27.6172 27.8676 27.1013 27.6028L9.7212 18.5012C8.33467 17.773 7.33507 16.5154 6.88364 14.9929C6.43221 13.4704 6.62568 11.8487 7.39956 10.4586L11.8171 2.58156C12.7522 0.959811 14.3645 0 16.2025 0Z" fill="#7E6C3E"/>
<path d="M62.0851 4.60883V17.3508L49.7694 2.76148C49.6273 2.59569 49.4142 2.54832 49.2247 2.61938L46.3352 3.80358C46.1458 3.87463 46.0273 4.04042 46.0273 4.25357V25.2613C46.0273 25.5218 46.2405 25.735 46.501 25.735H50.1247C50.3852 25.735 50.5984 25.5218 50.5984 25.2613V10.8141L63.0325 25.5692C63.1272 25.6876 63.2456 25.735 63.3877 25.735H66.1825C66.443 25.735 66.6561 25.5218 66.6561 25.2613V3.18779C66.6561 2.85622 66.3246 2.61938 66.0167 2.7378L62.393 4.15884C62.2035 4.25357 62.0851 4.41936 62.0851 4.60883Z" fill="#272F36"/>
<path d="M77.2814 8.65869C74.8183 8.65869 72.7578 9.51132 71.0525 11.1929C69.3473 12.8981 68.5183 14.9586 68.5183 17.4218C68.5183 19.8849 69.3709 21.9454 71.0525 23.6507C72.7578 25.3559 74.8183 26.1849 77.2814 26.1849C79.7445 26.1849 81.8287 25.3323 83.534 23.6507C85.2392 21.9454 86.0919 19.8849 86.0919 17.4218C86.0919 14.9586 85.2392 12.8981 83.534 11.1929C81.8051 9.51132 79.7445 8.65869 77.2814 8.65869ZM80.5024 20.7139C79.6498 21.5665 78.5603 22.0165 77.2814 22.0165C76.0025 22.0165 74.9367 21.5902 74.0841 20.7139C73.2314 19.8612 72.8051 18.7481 72.8051 17.4218C72.8051 16.0955 73.2314 15.006 74.0841 14.1297C74.9367 13.2771 76.0025 12.8271 77.2814 12.8271C78.5603 12.8271 79.6498 13.2534 80.5024 14.1297C81.3551 14.9823 81.8051 16.0955 81.8051 17.4218C81.8051 18.7481 81.3551 19.8376 80.5024 20.7139Z" fill="#272F36"/>
<path d="M88.4283 25.7347H91.7677C92.0282 25.7347 92.2414 25.5216 92.2414 25.261V17.8911C92.2414 16.3042 92.7624 14.939 93.7809 14.2522C94.6809 13.6601 95.6756 13.3759 96.7887 13.4232C97.0493 13.4232 97.2861 13.2101 97.2861 12.9496V9.27431C97.2861 8.9901 97.0493 8.77694 96.7887 8.80063C95.8651 8.87168 95.0124 9.1322 94.2309 9.5822C93.3072 10.1032 92.644 10.9085 92.2651 11.9743V9.84272C92.2651 9.51115 91.9335 9.27431 91.6256 9.39273L88.2625 10.719C88.073 10.7901 87.9546 10.9559 87.9546 11.169V25.261C87.9546 25.5216 88.1677 25.7347 88.4283 25.7347Z" fill="#272F36"/>
<path d="M99.1473 9.06295H100.592H100.616V6.16759C100.616 5.95444 100.734 5.78865 100.924 5.7176L104.263 4.39129C104.571 4.27287 104.902 4.50971 104.902 4.84129V9.06295H109.272C109.533 9.06295 109.746 9.27611 109.746 9.53663L109.746 12.7788C109.746 13.0393 109.533 13.2525 109.272 13.2525H104.902L104.902 19.3228C104.902 21.0359 105.992 21.8353 107.248 21.8353C107.855 21.8353 108.507 21.7101 109.012 21.5606C109.353 21.4598 109.76 21.716 109.76 22.0711V25.4015C109.76 25.592 109.643 25.7634 109.461 25.8207C108.999 25.9666 108.276 26.1749 107.248 26.1749C104.507 26.1749 100.616 24.2335 100.616 19.6654V18.295L100.616 13.2525H99.1473C98.8867 13.2525 98.6736 13.0393 98.6736 12.7788L98.6736 9.53663C98.6736 9.27611 98.8868 9.06295 99.1473 9.06295Z" fill="#272F36"/>
<path d="M140.79 2.00342C137.427 2.00342 134.585 3.16394 132.24 5.50865C129.895 7.85337 128.735 10.6955 128.735 14.0823C128.735 17.4691 129.895 20.3349 132.24 22.6559C134.585 25.0006 137.427 26.1611 140.79 26.1611C144.153 26.1611 147.019 25.0006 149.363 22.6559C151.708 20.3112 152.892 17.4691 152.892 14.0823C152.892 10.6955 151.708 7.82969 149.363 5.50865C147.019 3.18762 144.153 2.00342 140.79 2.00342ZM146.142 19.5533C144.698 20.9743 142.921 21.6849 140.79 21.6849C138.658 21.6849 136.882 20.9743 135.437 19.5533C133.992 18.1322 133.282 16.3086 133.282 14.0823C133.282 11.8797 133.992 10.0323 135.437 8.61126C136.882 7.16654 138.658 6.45602 140.79 6.45602C142.921 6.45602 144.698 7.16654 146.142 8.61126C147.587 10.056 148.298 11.8797 148.298 14.0823C148.298 16.3086 147.587 18.1322 146.142 19.5533Z" fill="#272F36"/>
<path d="M163.957 8.65869C161.707 8.65869 160.049 9.44026 159.007 10.9797V9.84289C159.007 9.51132 158.675 9.27448 158.368 9.3929L155.028 10.6955C154.839 10.7666 154.72 10.9324 154.72 11.1455V25.2375C154.72 25.498 154.933 25.7112 155.194 25.7112H158.533C158.794 25.7112 159.007 25.498 159.007 25.2375V16.7586C159.007 15.385 159.339 14.3665 160.002 13.6797C160.665 12.9929 161.541 12.6613 162.654 12.6613C163.649 12.6613 164.454 12.9455 165.046 13.5376C165.639 14.1297 165.946 14.9823 165.946 16.0718V25.2612C165.946 25.5217 166.16 25.7349 166.42 25.7349H169.76C170.02 25.7349 170.233 25.5217 170.233 25.2612V15.5507C170.233 13.3955 169.641 11.7139 168.457 10.506C167.273 9.27448 165.781 8.65869 163.957 8.65869Z" fill="#272F36"/>
<path d="M189.208 17.422C189.208 14.9352 188.426 12.851 186.839 11.1694C185.252 9.48788 183.239 8.63525 180.823 8.63525C178.266 8.63525 176.158 9.46419 174.523 11.1458C172.889 12.8273 172.06 14.9115 172.06 17.3983C172.06 19.9325 172.889 22.0167 174.547 23.6746C176.205 25.3325 178.408 26.1614 181.155 26.1614C184.139 26.1614 186.437 25.1193 188.071 23.0351C188.237 22.7983 188.189 22.4667 187.929 22.3246L185.276 20.7852C185.087 20.6667 184.85 20.7141 184.684 20.8799C183.855 21.8036 182.694 22.2536 181.202 22.2536C178.644 22.2536 177.105 21.2115 176.513 19.1273H188.639C188.876 19.1273 189.065 18.9378 189.113 18.7247C189.16 18.2983 189.208 17.8483 189.208 17.422ZM176.442 15.8589C176.679 14.7931 177.176 13.9642 177.934 13.3957C178.692 12.8036 179.639 12.5194 180.8 12.5194C181.771 12.5194 182.647 12.8036 183.405 13.3484C184.163 13.8931 184.684 14.7457 184.921 15.8826H176.442V15.8589Z" fill="#272F36"/>
<path d="M111.623 1.80724V25.2612C111.623 25.5217 111.836 25.7349 112.097 25.7349H115.436C115.697 25.7349 115.91 25.5217 115.91 25.2612V16.7586C115.91 15.3849 116.241 14.3665 116.905 13.6797C117.568 12.9929 118.444 12.6613 119.557 12.6613C120.552 12.6613 121.357 12.9455 121.949 13.5376C122.541 14.1297 122.849 14.9823 122.849 16.0718V25.2612C122.849 25.5217 123.062 25.7349 123.323 25.7349H126.662C126.923 25.7349 127.136 25.5217 127.136 25.2612V15.5507C127.136 13.3955 126.544 11.7139 125.36 10.506C124.176 9.29815 122.683 8.68236 120.86 8.68236C118.61 8.68236 116.952 9.46394 115.91 11.0034V0.480934C115.91 0.149358 115.578 -0.0874826 115.27 0.0309375L111.931 1.35724C111.741 1.4283 111.623 1.59408 111.623 1.80724Z" fill="#272F36"/>
</svg>
